<svg width="1440" height="131" viewBox="0 0 1440 131" fill="none" xmlns="http://www.w3.org/2000/svg">
<g clip-path="url(#clip0_1113_840)">
<rect width="1440" height="131" fill="#6C3DE6"/>
<path d="M1484 51.633V-325.109C1484 -341.677 1470.57 -355.109 1454 -355.109H1155.73L1083.28 -360.956C1066.43 -362.316 1049.5 -362.042 1032.71 -360.14L929.133 -348.407C909.534 -346.186 889.747 -346.186 870.149 -348.407L764.712 -360.351C749.154 -362.113 733.469 -362.478 717.846 -361.439L622.594 -355.109H24C7.43146 -355.109 -6 -341.677 -6 -325.109V51.633L87.0528 28.9182C143.444 15.1527 202.532 17.1351 257.874 34.6493L404.17 80.9482C543.235 124.959 691.059 133.711 834.346 106.418L1222.19 32.5438C1282.81 20.9967 1345.13 21.7389 1405.46 34.7263L1484 51.633Z" fill="#FFFAF6"/>
<path d="M1476.5 102.5L1270.63 30.1407C1195.99 3.90714 1114.45 5.10405 1040.61 33.5171L867.801 100.018C802.761 125.046 730.595 124.156 666.193 97.5292V97.5292C606.064 72.6699 539.016 70.1881 477.214 90.5344L435.228 104.357C366.917 126.846 293.16 126.616 224.99 103.7L-24 20" stroke="#FFFAF6" style="mix-blend-mode:screen"/>
<mask id="mask0_1113_840" style="mask-type:alpha" maskUnits="userSpaceOnUse" x="-10" y="-363" width="1495" height="486">
<path d="M1484.28 51.5824V-325.11C1484.28 -341.678 1470.85 -355.11 1454.28 -355.11H1155.07L1082.26 -360.968C1065.47 -362.32 1048.58 -362.048 1031.84 -360.157L927.648 -348.389C908.107 -346.182 888.379 -346.182 868.838 -348.389L762.791 -360.367C747.279 -362.119 731.64 -362.481 716.063 -361.449L620.4 -355.11H20C3.43146 -355.11 -10 -341.678 -10 -325.11V51.5824L83.8106 28.751C140.049 15.0638 198.962 17.0353 254.16 34.4518L402.529 81.2664C541.232 125.031 688.619 133.735 831.509 106.599L1222.25 32.3952C1282.7 20.915 1344.83 21.6529 1405 34.5654L1484.28 51.5824Z" fill="#FFFAF6"/>
</mask>
<g mask="url(#mask0_1113_840)">
<path d="M1476.38 102.5L1264.19 29.0166C1190.47 3.48566 1110.12 4.6518 1037.16 32.3116L858.561 100.029C792.498 125.076 719.402 124.184 653.97 97.5299V97.5299C592.886 72.6474 524.972 70.1619 462.233 90.5128L416.579 105.321C349.126 127.201 276.451 126.977 209.134 104.681L-46.5379 20" stroke="#6C3DE6" style="mix-blend-mode:darken"/>
</g>
<path d="M-19 111L115.555 45.9485C199.837 5.20204 299.883 15.4013 374.208 72.3171V72.3171C437.496 120.781 520.225 135.859 596.541 112.841L658.054 94.2881C720.423 75.4765 786.828 74.6017 849.671 91.7637L890.445 102.899C963.165 122.758 1040.37 118.396 1110.4 90.4733L1291.65 18.1939C1317.78 7.77002 1345.1 0.564556 1372.97 -3.26368L1498.5 -20.5" stroke="#FFFAF6"/>
<path d="M-22.5 90L69.857 35.4403C99.1414 18.1407 135.861 19.6789 163.596 39.3673V39.3673C185.866 55.1763 214.31 59.4962 240.27 51.0118L248.053 48.4681C281.342 37.5881 317.883 44.4662 344.938 66.7049L368.925 86.4214C408.084 118.609 462.679 124.302 507.637 100.887L517.152 95.9311C554.094 76.6908 598.762 80.1336 632.318 104.808V104.808C661.789 126.477 700.149 131.957 734.508 119.405L774.349 104.85C800.397 95.3345 829.144 96.4528 854.374 107.963L877.782 118.643C905.091 131.101 937.306 124.707 957.787 102.764V102.764C978.951 80.0878 1012.54 74.0975 1040.24 88.0593L1053.15 94.5685C1090.23 113.256 1135.29 103.859 1161.81 71.9125L1187.05 41.503C1214.82 8.03773 1266.38 8.68347 1293.31 42.8339V42.8339C1314.58 69.8094 1352.57 76.8038 1382.05 59.1731L1438 25.7187C1464.3 9.99275 1494.96 3.16155 1525.45 6.23824L1533 7" stroke="#FFFAF6"/>
</g>
<defs>
<clipPath id="clip0_1113_840">
<rect width="1440" height="131" fill="white"/>
</clipPath>
</defs>
</svg>
