<svg width="1440" height="173" viewBox="0 0 1440 173" fill="none" xmlns="http://www.w3.org/2000/svg">
<path fill-rule="evenodd" clip-rule="evenodd" d="M1440 1547.26V1552.08C1440 1556.99 1435.62 1560.74 1430.77 1559.99L1371.91 1550.81L1440 1547.26ZM1440 1546.74L1471.86 1545.08C1535.96 1541.74 1604.15 1544.53 1656.49 1552.62C1656.83 1552.68 1656.84 1553.15 1656.51 1553.24C1656.47 1553.25 1656.42 1553.25 1656.38 1553.24C1604.47 1545.07 1536.43 1542.23 1472.5 1545.57L1440 1547.26V1546.74ZM1369.41 1550.42L1371.91 1550.81L1318.76 1553.59C1259.3 1556.69 1196.57 1556.18 1138.55 1552.14C1112.27 1550.3 1085.15 1549.21 1057.9 1548.84L1064.58 1548.44C1089.86 1548.89 1114.98 1549.96 1139.37 1551.66C1196.92 1555.68 1259.15 1556.18 1318.12 1553.1L1369.41 1550.42ZM1064.58 1548.44C1005.34 1547.4 945.264 1549.78 891.813 1555.47L864.476 1558.38C760.755 1569.42 637.26 1570.18 530.31 1560.45L369.728 1545.85C328.959 1542.14 286.112 1539.92 243.007 1539.15L218.795 1536.29C188.012 1532.64 156.86 1533.53 126.334 1538.92L113.526 1541.19C73.3532 1543.2 34.6386 1546.5 -1.00003 1551.03V97.5251C-1.00003 64.388 25.8629 37.5251 59 37.5251H576.341C596.659 37.5251 616.909 35.1615 636.681 30.4822L647.676 27.8799C694.415 16.8183 743.232 18.1454 789.302 31.7299L803.239 35.8397C849.975 49.6209 899.795 48.882 946.102 33.721C991.451 18.8737 1040.06 17.0872 1086.38 28.5657L1093.27 30.2739C1112.7 35.0901 1132.65 37.5251 1152.67 37.5251H1380C1413.14 37.5251 1440 64.388 1440 97.5251V1546.74L1369.41 1550.42L1309.34 1541.06C1286.94 1537.57 1264.22 1536.49 1241.58 1537.85L1064.58 1548.44ZM-1.00003 1551.63C-16.3947 1553.61 -31.2052 1555.82 -45.2987 1558.26C-45.3417 1558.27 -45.3857 1558.27 -45.4282 1558.26C-45.7764 1558.18 -45.7627 1557.68 -45.4105 1557.62C-31.2705 1555.19 -16.4233 1553 -1.00003 1551.03V1551.63ZM109.386 1541.92L113.526 1541.19C155.703 1539.07 199.487 1538.38 243.007 1539.15L248.093 1539.76C201.473 1538.8 154.459 1539.54 109.386 1541.92ZM109.386 1541.92L8.39219 1559.77C3.4929 1560.63 -1.00003 1556.86 -1.00003 1551.89V1551.63C33.3762 1547.21 70.665 1543.96 109.386 1541.92ZM248.093 1539.76C289.127 1540.6 329.856 1542.77 368.687 1546.3L529.27 1560.91C611.007 1568.35 702.344 1569.69 787.282 1565.05L599.089 1576.31C580.331 1577.44 561.511 1576.89 542.85 1574.68L248.093 1539.76ZM804.672 1564C825.545 1562.65 845.955 1560.92 865.656 1558.82L892.994 1555.91C944.068 1550.47 1001.24 1548.09 1057.9 1548.84L804.672 1564ZM787.282 1565.05C793.111 1564.73 798.909 1564.38 804.672 1564L787.282 1565.05Z" fill="#FFFAF6"/>
<path d="M750 69L803.582 45.2933C857.534 21.4225 918.779 20.0522 973.745 41.4862V41.4862C1019.48 59.3223 1069.85 61.4638 1116.94 47.5745L1166.88 32.8458C1220.78 16.9471 1278.8 23.2811 1328 50.4348V50.4348" stroke="#FFFAF6" stroke-width="0.5"/>
<path d="M612 37.3333L647.42 25.7576C698.33 9.1196 753.843 11.0962 803.539 31.0697V31.0697C855.984 52.1479 914.82 52.9426 967.712 33.0132L1009.05 17.437C1038.68 6.27337 1071.53 7.35201 1100.36 20.435V20.435C1124.5 31.3874 1151.6 33.9854 1177.37 27.8185L1201.2 22.1178C1232.6 14.6068 1265.39 15.1901 1296.5 23.8129L1403 53.3333" stroke="#FFFAF6" stroke-width="0.5"/>
</svg>
